<?xml version="1.0" standalone="no"?><!DOCTYPE svg PUBLIC "-//W3C//DTD SVG 1.1//EN" "http://www.w3.org/Graphics/SVG/1.1/DTD/svg11.dtd"><svg t="1590148318036" class="icon" viewBox="0 0 1024 1024" version="1.1" xmlns="http://www.w3.org/2000/svg" p-id="2957" xmlns:xlink="http://www.w3.org/1999/xlink" width="200" height="200"><defs><style type="text/css"></style></defs><path d="M360.597 926.64H210.89c-45.646 0-82.782-37.136-82.782-82.782V180.891c0-45.646 37.136-82.782 82.782-82.782h537.403c45.646 0 82.781 37.136 82.781 82.782v193.206c0 17.673-14.327 32-32 32s-32-14.327-32-32V180.891c0-10.181-8.601-18.782-18.781-18.782H210.89c-10.181 0-18.782 8.601-18.782 18.782v662.966c0 10.181 8.601 18.782 18.782 18.782h149.707c17.673 0 32 14.327 32 32s-14.327 32.001-32 32.001z" p-id="2958" fill="#eeeeee"></path><path d="M618.585 324.35H292.35c-17.673 0-32-14.327-32-32s14.327-32 32-32h326.235c17.673 0 32 14.327 32 32s-14.327 32-32 32z m-43.998 156.744H292.601c-17.673 0-32-14.327-32-32s14.327-32 32-32h281.986c17.673 0 32 14.327 32 32s-14.327 32-32 32z m-91.995 159.991h-188.99c-17.673 0-32-14.327-32-32s14.327-32 32-32h188.99c17.673 0 32 14.327 32 32s-14.327 32-32 32z m-29.281 280.891l-3.156-146.626c-5.508-17.409 2.855-35.333 12.959-46.674l263.139-295.372c7.36-8.262 17.431-13.394 28.355-14.45 11.676-1.129 23.359 2.65 32.029 10.374l108.471 96.634c17.425 15.523 18.743 42.595 2.954 60.387l-66.067 74.886c-11.692 13.254-31.915 14.519-45.166 2.826-13.253-11.691-14.519-31.914-2.826-45.166l52.461-59.464-76.253-67.932-246.373 276.553a60.84 60.84 0 0 1 0.272 4.618l1.675 77.806 68.047-7.82a81.528 81.528 0 0 0 3.246-3.442l0.226-0.251 135.027-148.398c11.894-13.07 32.131-14.026 45.205-2.133 13.071 11.895 14.026 32.133 2.133 45.205L634.747 881.818c-3.284 3.678-8.309 8.94-13.809 13.396-12.6 10.207-23.772 12.293-32.53 11.236l-135.097 15.526z m-2.105-143.727a0.203 0.203 0 0 0 0.011 0.026 0.12 0.12 0 0 1-0.011-0.026z" p-id="2959" fill="#eeeeee"></path><path d="M803.003 671.965c-8.355 0-16.701-3.252-22.977-9.725l-98.864-101.965c-12.302-12.688-11.989-32.947 0.699-45.25 12.688-12.3 32.946-11.989 45.249 0.699l98.864 101.965c12.302 12.688 11.989 32.947-0.699 45.25-6.215 6.027-14.248 9.026-22.272 9.026z" p-id="2960" fill="#eeeeee"></path></svg>